<?xml version="1.0" encoding="UTF-8"?>
<svg width="8px" height="18px" viewBox="0 0 8 18" version="1.1" xmlns="http://www.w3.org/2000/svg" xmlns:xlink="http://www.w3.org/1999/xlink">
    <!-- Generator: Sketch 50 (54983) - http://www.bohemiancoding.com/sketch -->
    <title>facebook</title>
    <desc>Created with Sketch.</desc>
    <defs></defs>
    <g id="ui-design" stroke="none" stroke-width="1" fill="none" fill-rule="evenodd">
        <g id="2.0-Registration" transform="translate(-1003.000000, -851.000000)" fill="#FFFFFF" fill-rule="nonzero">
            <g id="info" transform="translate(505.000000, 0.000000)">
                <g id="element/button/facebook" transform="translate(480.000000, 838.000000)">
                    <g id="facebook" transform="translate(18.000000, 13.000000)">
                        <path d="M1.74578218,3.47888631 C1.74578218,3.93155916 1.74578218,5.95202784 1.74578218,5.95202784 L0.0275643564,5.95202784 L0.0275643564,8.9761949 L1.74578218,8.9761949 L1.74578218,17.9629559 L5.27536634,17.9629559 L5.27536634,8.97644548 L7.64388119,8.97644548 C7.64388119,8.97644548 7.86570297,7.52638051 7.97322772,5.94087703 C7.6649505,5.94087703 5.28871287,5.94087703 5.28871287,5.94087703 C5.28871287,5.94087703 5.28871287,4.18151276 5.28871287,3.87313225 C5.28871287,3.56408353 5.67354455,3.14837123 6.05390099,3.14837123 C6.43354455,3.14837123 7.23481188,3.14837123 7.9769505,3.14837123 C7.9769505,2.73662645 7.9769505,1.31395824 7.9769505,4.17633411e-05 C6.98621782,4.17633411e-05 5.85908911,4.17633411e-05 5.36225743,4.17633411e-05 C1.65853465,-0.000167053364 1.74578218,3.02700696 1.74578218,3.47888631 Z" id="Facebook"></path>
                    </g>
                </g>
            </g>
        </g>
    </g>
</svg>