<?xml version="1.0" encoding="UTF-8"?>
<svg width="15px" height="10px" viewBox="0 0 15 10" version="1.1" xmlns="http://www.w3.org/2000/svg" xmlns:xlink="http://www.w3.org/1999/xlink">
    <!-- Generator: Sketch 50 (54983) - http://www.bohemiancoding.com/sketch -->
    <title>active</title>
    <desc>Created with Sketch.</desc>
    <defs></defs>
    <g id="active" stroke="none" stroke-width="1" fill="none" fill-rule="evenodd">
        <g id="icon" fill="#12AEF5">
            <path d="M7.5,10 C6.119375,10 5,8.880625 5,7.5 C5,6.119375 6.119375,5 7.5,5 C8.880625,5 10,6.119375 10,7.5 C10,8.880625 8.880625,10 7.5,10 Z" id="Path"></path>
            <path d="M2.32099495,5.69945334 C1.96500905,6.23716067 1.1969247,6.41071702 0.605430518,6.0871023 C0.0139363397,5.76348757 -0.176980845,5.06524809 0.17900505,4.52754076 L0.229341248,4.45151221 C4.14426081,-1.4838374 10.9071289,-1.4838374 14.8220485,4.45151221 C15.1770658,4.98974849 14.9848917,5.68770297 14.3928157,6.01043717 C13.8007396,6.33317138 13.0329688,6.15847242 12.6779515,5.62023614 C9.73390242,1.15680843 5.31748733,1.15680843 2.37238471,5.62183046 L2.32099495,5.69945334 Z" id="Path" fill-rule="nonzero"></path>
        </g>
    </g>
</svg>