<?xml version="1.0" encoding="UTF-8"?>
<svg width="32px" height="32px" viewBox="0 0 32 32" version="1.1" xmlns="http://www.w3.org/2000/svg" xmlns:xlink="http://www.w3.org/1999/xlink">
    <!-- Generator: Sketch 50 (54983) - http://www.bohemiancoding.com/sketch -->
    <title>icon/twitter</title>
    <desc>Created with Sketch.</desc>
    <defs></defs>
    <g id="Page-1" stroke="none" stroke-width="1" fill="none" fill-rule="evenodd">
        <g id="Email-(registration)" transform="translate(-736.000000, -849.000000)">
            <g id="info" transform="translate(235.000000, 156.000000)">
                <g id="social" transform="translate(437.000000, 693.000000)">
                    <g id="icon/twitter" transform="translate(64.000000, 0.000000)">
                        <rect id="Rectangle" stroke="#7E95A9" x="0.5" y="0.5" width="31" height="31"></rect>
                        <path d="M24.7550769,11.54 C24.1778462,11.8 23.5526154,11.98 22.8990769,12.05875 C23.5673846,11.6525 24.0769231,11.00875 24.3218462,10.24125 C23.6966154,10.6175 23.0049231,10.89125 22.264,11.0375 C21.6781538,10.4025 20.8363077,10.0025 19.9083077,10.0025 C18.1249231,10.0025 16.6775385,11.4725 16.6775385,13.28375 C16.6775385,13.5425 16.7070769,13.79125 16.76,14.03125 C14.072,13.89375 11.6929231,12.59 10.0966154,10.6025 C9.81723077,11.08625 9.65846154,11.6525 9.65846154,12.25375 C9.65846154,13.39125 10.2307692,14.3975 11.096,14.9825 C10.5667692,14.96875 10.072,14.8175 9.63507692,14.5725 L9.63507692,14.6125 C9.63507692,16.20375 10.7501538,17.53125 12.2258462,17.835 C11.9563077,17.9075 11.6683077,17.94625 11.3753846,17.94625 C11.1686154,17.94625 10.9667692,17.9275 10.7649231,17.88875 C11.1784615,19.1925 12.3698462,20.13875 13.784,20.16875 C12.6775385,21.0475 11.2830769,21.57 9.76923077,21.57 C9.50953846,21.57 9.25476923,21.555 9,21.52625 C10.4326154,22.45875 12.1298462,23 13.9563077,23 C19.8984615,23 23.1489231,18 23.1489231,13.665 L23.1390769,13.24 C23.7741538,12.77625 24.3218462,12.2 24.7550769,11.54 Z" id="twitter-logo-silhouette" fill="#7E95A9"></path>
                    </g>
                </g>
            </g>
        </g>
    </g>
</svg>